<?xml version="1.0" standalone="no"?>
<!DOCTYPE svg PUBLIC "-//W3C//DTD SVG 20010904//EN"
 "http://www.w3.org/TR/2001/REC-SVG-20010904/DTD/svg10.dtd">
<svg version="1.0" xmlns="http://www.w3.org/2000/svg"
 width="700.000000pt" height="700.000000pt" viewBox="0 0 700.000000 700.000000"
 preserveAspectRatio="xMidYMid meet">
<metadata>
Created by potrace 1.11, written by Peter Selinger 2001-2013
</metadata>
<g transform="translate(0.000000,700.000000) scale(0.100000,-0.100000)"
fill="#000000" stroke="none">
<path d="M3310 6993 c-522 -36 -937 -146 -1370 -362 -348 -174 -608 -360 -888
-635 -588 -577 -935 -1293 -1034 -2131 -16 -143 -16 -587 0 -730 108 -914 520
-1698 1201 -2288 537 -463 1172 -738 1916 -829 157 -19 602 -16 770 5 411 53
780 161 1131 333 914 448 1596 1282 1849 2262 285 1100 23 2259 -708 3132
-554 661 -1347 1100 -2197 1214 -224 31 -489 42 -670 29z m580 -1242 c472 -88
883 -303 1215 -636 360 -359 586 -821 651 -1327 22 -176 15 -522 -14 -678 -44
-235 -102 -410 -202 -616 -334 -688 -976 -1149 -1754 -1259 -152 -22 -460 -20
-623 4 -247 37 -454 101 -678 210 -691 338 -1152 978 -1260 1751 -31 225 -18
560 32 785 109 499 381 949 765 1268 286 237 647 412 993 482 194 40 247 44
510 41 205 -3 271 -7 365 -25z"/>
<path d="M2680 3399 l0 -1190 38 23 c22 13 467 280 990 593 523 314 950 573
949 578 -2 6 -1963 1187 -1973 1187 -2 0 -4 -536 -4 -1191z"/>
</g>
</svg>
